<svg width="454" height="83" viewBox="0 0 454 83" fill="none" xmlns="http://www.w3.org/2000/svg">
<g clip-path="url(#clip0_18_714)">
<path d="M307.368 67.8724C298.354 52.7299 302.383 37.662 318.636 27.9852C335.068 18.1889 347.888 20.8022 355.156 33.0028C356.141 34.6604 357.096 36.4823 357.678 37.8861L323.247 58.4195C332.784 74.01 342.351 79.5802 350.932 74.458C358.23 70.1124 360.051 62.2574 355.111 53.9395C353.619 51.4456 351.619 49.1309 350.126 48.5187C350.276 47.9213 351.111 46.8013 352.216 46.1442C356.559 43.5608 360.648 44.7554 363.23 49.0861C368.394 57.7624 362.961 69.0223 349.768 76.8922C331.948 87.5098 317.054 84.1349 307.368 67.8724ZM340.291 45.2333C339.739 43.6802 338.664 41.4402 337.291 39.1405C331.128 28.7916 325.411 25.7004 319.412 29.2844C312.771 33.2418 313.502 41.8285 322.591 57.2995L340.306 45.2333H340.291Z" fill="#0D0943"/>
<path d="M98.9935 50.8185C96.7399 50.8185 94.6953 51.3561 93.4118 52.2222C96.4265 53.7305 98.5756 58.778 98.5756 65.0202C98.5756 75.3392 94.7102 79.5355 90.0837 79.5355C85.0392 79.5355 82.2334 75.7722 82.2334 61.3615V27.0594L104.262 27.3879V25.2375H82.2334L82.9797 9.54248H81.8006C79.8605 25.133 73.8459 25.2375 55.474 25.9991V27.0743H63.6376V59.1215C63.6376 74.2789 71.0551 81.9248 85.1288 81.9248C99.2025 81.9248 108.665 72.8901 108.665 62.0335C108.665 54.9401 104.695 50.8483 98.9935 50.8483V50.8185Z" fill="#0D0943"/>
<path d="M142.737 23.8787C123.604 23.8787 112.321 34.5262 112.321 52.8047C112.321 71.0832 123.604 81.8353 142.737 81.8353C161.87 81.8353 173.153 71.1878 173.153 52.8047C173.153 34.4217 161.766 23.8787 142.737 23.8787ZM142.737 80.327C135.32 80.327 130.812 70.9787 130.812 52.8047C130.812 34.6307 135.32 25.3869 142.737 25.3869C150.154 25.3869 154.557 34.7353 154.557 52.8047C154.557 70.8742 150.05 80.327 142.737 80.327Z" fill="#0D0943"/>
<path d="M233.82 64.8708C233.82 64.4377 233.791 64.0047 233.746 63.5716C233.701 63.1385 233.641 62.7055 233.567 62.2873C233.492 61.8692 233.388 61.451 233.268 61.0478C233.149 60.6446 233 60.2564 232.835 59.883C232.671 59.5097 232.477 59.1662 232.253 58.8228C232.03 58.4942 231.776 58.1806 231.507 57.9118C231.224 57.6281 230.91 57.3892 230.582 57.1651C230.224 56.9411 229.851 56.7619 229.463 56.6275C229.03 56.4782 228.582 56.3886 228.134 56.3289C227.627 56.2691 227.105 56.2691 226.582 56.3139C225.985 56.3587 225.388 56.4633 224.806 56.5977C224.478 56.6724 224.149 56.762 223.821 56.8665C223.732 56.8964 223.657 56.9262 223.567 56.9412C223.493 56.971 223.403 56.986 223.344 57.0158C223.209 57.0905 223.12 57.2846 223.06 57.419C223.03 57.4937 223 57.5833 222.985 57.658C222.896 57.9865 222.836 58.33 222.776 58.6734C222.687 59.1812 222.627 59.6889 222.553 60.1966C222.478 60.8089 222.403 61.4361 222.359 62.0484C222.299 62.7055 222.254 63.3625 222.209 64.0345C222.179 64.6767 222.15 65.3188 222.15 65.9609C222.15 74.025 217.105 80.3717 209.688 80.3717C200.882 80.3717 196.36 73.3829 196.36 52.5209C196.36 44.4867 196.36 29.5682 205.748 26.0738C211.464 23.9383 221.209 27.6119 223.344 30.4343C223.344 30.4343 225.791 31.7037 223.717 37.0498C222.881 39.2002 219.135 42.1869 219.075 45.7709C219.045 47.4286 219.553 49.1608 220.881 50.1464C222.284 51.1918 224.194 51.371 225.896 51.0126C228.239 50.5347 230.388 49.116 231.746 47.1448C234.85 42.6797 233.955 36.2136 230.731 32.0919C227.448 27.8807 222.209 25.7004 217.12 24.6849C214.389 24.1473 211.598 23.9233 208.807 23.9233C189.032 23.9233 177.854 34.3469 177.854 52.5209C177.854 70.6948 188.167 81.88 208.583 81.88C223.299 81.88 233.835 74.5626 233.835 65.3188C233.835 65.1695 233.835 65.0052 233.835 64.8559L233.82 64.8708Z" fill="#0D0943"/>
<path d="M296.19 51.7145C296.19 59.2409 295.115 62.0335 291.891 62.0335C285.116 62.0335 268.147 46.3384 268.147 40.2008C268.147 37.6173 270.087 36.0045 273.31 36.0045C279.116 36.0045 286.101 40.5144 289.757 46.652C292.235 43.4264 293.518 39.7677 293.518 36.4376C293.518 29.1202 286.966 23.8636 277.832 23.8636C270.102 23.8636 264.938 28.5975 264.938 35.6909C264.938 39.3496 266.221 43.2173 268.803 46.652L258.49 53.9694V19.0401C258.49 11.0806 259.028 4.30083 260.207 0.328535L259.998 0C252.267 3.65869 243.342 5.37603 232.492 5.37603V5.8091C238.611 6.67524 240.76 10.7521 240.76 20.4289V64.0943C240.76 73.6666 238.402 78.7141 233.343 80.1179V80.5509H265.908V80.1179C260.102 78.7141 258.49 74.8463 258.49 64.0943V56.5678H261.177C265.371 56.5678 267.296 58.6137 269.669 65.6026C274.4 77.8629 277.832 81.8352 284.071 81.8352C292.13 81.8352 298.145 73.0245 298.145 60.6447C298.145 57.5236 297.712 54.731 296.966 51.7145H296.219H296.19Z" fill="#0D0943"/>
<path d="M429.27 24.4012C424.838 15.695 418.375 7.6608 409.63 3.30024C400.884 -1.06032 389.631 -1.14992 381.841 4.76372C379.632 6.43626 377.692 8.64641 376.975 11.3344C376.259 14.0224 377.005 17.2033 379.274 18.8161C383.005 21.4742 388.019 18.8161 392.303 17.1435C402.377 13.2011 414.629 15.5905 422.465 23.0572C430.3 30.5089 433.315 42.6349 429.882 52.9091C427.39 60.331 421.793 67.1108 414.48 69.8436C407.436 72.4868 403.227 70.7695 397.735 65.931C396.825 65.1396 389.124 56.1646 389.765 55.8062L424.674 36.0791C424.121 34.6604 423.211 32.8386 422.256 31.1511C415.286 18.7862 402.526 15.8742 385.87 25.2822C369.409 34.5858 365.006 49.5491 373.677 64.9006C383.96 83.1194 412.824 88.0922 427.33 71.8596C432.942 65.5876 435.643 57.0307 435.643 48.6083C435.643 40.1858 433.121 31.9127 429.3 24.4161L429.27 24.4012ZM386.587 26.5815C392.676 23.1468 398.317 26.3724 404.242 36.8557C405.57 39.2002 406.585 41.4552 407.108 43.0232L389.124 54.6712C380.393 38.9762 379.856 30.3895 386.601 26.5815H386.587Z" fill="#0D0943"/>
<path d="M23.3418 26.8652C23.6253 26.7009 24.0731 26.4172 24.1775 26.3574C24.2671 26.2828 24.3566 26.2081 24.4611 26.1484C24.7297 25.9841 25.0581 25.999 25.3267 25.8796C27.4758 25.1628 29.8339 25.1777 31.9979 26.2828C35.0723 27.8657 36.7737 30.942 37.9229 34.078C38.3109 35.1532 38.6243 36.2434 38.9228 37.3335C38.9228 37.5575 39.0273 37.8861 39.0273 37.8861C39.0273 37.9607 39.1318 38.0503 39.1318 38.125C39.5049 39.6631 39.4899 41.9031 40.5048 43.1277C41.5197 44.3373 43.1315 45.2034 44.6389 45.5917C47.6984 46.3981 50.2654 45.5469 52.31 43.277C54.2502 41.1266 55.6829 38.2893 55.4143 35.3175C54.6233 26.5367 45.9522 22.4598 29.4757 23.9382C15.6855 25.1777 6.56674 30.4044 3.05951 37.6173C2.96996 37.6621 2.1939 41.1266 2.14912 42.0973L2.23867 42.3064C0.522365 52.4163 8.9248 57.0008 17.5063 58.5539C61.4437 62.6158 21.0882 100.547 16.4915 66.5582C17.2526 57.1054 5.71605 55.0147 1.77601 62.7651C-6.80551 78.9978 17.7451 83.8064 32.8038 81.2378C56.7575 79.8191 63.8913 51.1768 40.0869 46.7266C35.6544 45.965 30.6995 45.2632 25.8341 44.8152C25.4909 44.6509 25.073 44.4568 24.5059 44.2626C22.103 43.4114 19.9091 41.948 18.5809 39.7229C17.0138 37.1245 17.1332 34.0631 18.5212 31.4348C19.5808 29.4188 22.1926 27.2087 23.3716 26.8503L23.3418 26.8652Z" fill="#0D0943"/>
<path d="M441.21 74.7268C441.21 70.7545 443.896 67.947 447.657 67.947C451.418 67.947 454 70.7396 454 74.7268C454 78.714 451.522 81.5066 447.553 81.5066C443.792 81.5066 441.21 78.6095 441.21 74.7268Z" fill="#0D0943"/>
</g>
<defs>
<clipPath id="clip0_18_714">
<rect width="454" height="83" fill="white"/>
</clipPath>
</defs>
</svg>
